<svg xmlns="http://www.w3.org/2000/svg" width="38" height="38" viewBox="0 0 38 38">
    <g id="Gruppe_105" data-name="Gruppe 105" transform="translate(-42)">
        <g id="Ellipse_1" data-name="Ellipse 1" transform="translate(42)" fill="none" stroke="#c8bbae" stroke-width="1">
            <circle cx="19" cy="19" r="19" stroke="none"/>
            <circle cx="19" cy="19" r="18.5" fill="none"/>
        </g>
        <path id="instagram" d="M10,7.6A2.4,2.4,0,1,0,12.4,10,2.4,2.4,0,0,0,10,7.6ZM10,6a4,4,0,1,1-4,4A4,4,0,0,1,10,6Zm5.2-.2a1,1,0,1,1-1-1A1,1,0,0,1,15.2,5.8ZM10,3.6c-1.979,0-2.3.006-3.223.046a4.346,4.346,0,0,0-1.438.266A2.5,2.5,0,0,0,3.911,5.338a4.34,4.34,0,0,0-.265,1.438C3.6,7.66,3.6,7.969,3.6,10c0,1.979.006,2.3.046,3.223a4.364,4.364,0,0,0,.265,1.438,2.487,2.487,0,0,0,1.426,1.426,4.355,4.355,0,0,0,1.44.266C7.66,16.4,7.969,16.4,10,16.4c1.979,0,2.3-.006,3.223-.046a4.372,4.372,0,0,0,1.438-.265,2.337,2.337,0,0,0,.864-.562,2.313,2.313,0,0,0,.563-.864,4.374,4.374,0,0,0,.266-1.44c.042-.883.046-1.192.046-3.223,0-1.979-.006-2.3-.046-3.223a4.354,4.354,0,0,0-.266-1.438,2.329,2.329,0,0,0-.562-.864,2.307,2.307,0,0,0-.864-.563,4.344,4.344,0,0,0-1.438-.265C12.34,3.6,12.031,3.6,10,3.6ZM10,2c2.174,0,2.445.008,3.3.048a5.894,5.894,0,0,1,1.942.372,3.9,3.9,0,0,1,1.418.922A3.926,3.926,0,0,1,17.58,4.76,5.91,5.91,0,0,1,17.952,6.7C17.99,7.555,18,7.826,18,10s-.008,2.445-.048,3.3a5.914,5.914,0,0,1-.372,1.942,4.084,4.084,0,0,1-2.34,2.34,5.91,5.91,0,0,1-1.942.372c-.853.038-1.124.048-3.3.048s-2.445-.008-3.3-.048A5.914,5.914,0,0,1,4.76,17.58a4.084,4.084,0,0,1-2.34-2.34A5.889,5.889,0,0,1,2.048,13.3C2.01,12.445,2,12.174,2,10s.008-2.445.048-3.3A5.889,5.889,0,0,1,2.42,4.76a3.9,3.9,0,0,1,.922-1.418A3.918,3.918,0,0,1,4.76,2.42,5.889,5.889,0,0,1,6.7,2.048C7.555,2.01,7.826,2,10,2Z" transform="translate(51 9)" fill="#c8bbae"/>
        <g id="Ellipse_5" data-name="Ellipse 5" transform="translate(45 3)" fill="none" stroke="#c8bbae" stroke-width="2">
            <circle cx="16" cy="16" r="16" stroke="none"/>
            <circle cx="16" cy="16" r="15" fill="none"/>
        </g>
    </g>
</svg>
