<svg xmlns="http://www.w3.org/2000/svg" width="19.539" height="19.04" viewBox="0 0 19.539 19.04">
    <path id="Pfad_173" data-name="Pfad 173" d="M15.083,12.757l-.916.916,7.584,7.584-1.517,1.517L12.65,15.191,5.065,22.774,3.549,21.257,13.566,11.24c-.631-1.563.021-3.813,1.738-5.531,2.095-2.094,4.981-2.6,6.448-1.137s.957,4.353-1.137,6.446c-1.718,1.718-3.969,2.37-5.531,1.739ZM4.307,3.813l7.2,7.2L8.479,14.053,4.306,9.88a4.29,4.29,0,0,1,0-6.067ZM19.1,9.5c1.349-1.348,1.627-2.924,1.138-3.413s-2.065-.211-3.413,1.137-1.626,2.925-1.137,3.414S17.748,10.849,19.1,9.5Z" transform="translate(-3.05 -3.734)" fill="#fff"/>
</svg>