<?xml version="1.0" encoding="utf-8"?>
<!-- Generator: Adobe Illustrator 25.4.1, SVG Export Plug-In . SVG Version: 6.00 Build 0)  -->
<svg version="1.1" id="Ebene_1" xmlns="http://www.w3.org/2000/svg" xmlns:xlink="http://www.w3.org/1999/xlink" x="0px" y="0px"
	 viewBox="0 0 18.7 14" style="enable-background:new 0 0 18.7 14;" xml:space="preserve">
<style type="text/css">
	.st0{fill:#FFFFFF;}
</style>
<path class="st0" d="M16,7.8H0.8C0.3,7.8,0,7.4,0,7c0-0.4,0.3-0.8,0.8-0.8c0,0,0,0,0,0H16l-4.9-4.9c-0.3-0.3-0.3-0.8,0-1.1
	c0.3-0.3,0.8-0.3,1.1,0c0,0,0,0,0,0l6.2,6.2c0.3,0.3,0.3,0.8,0,1.1l-6.2,6.2c-0.3,0.3-0.8,0.3-1.1,0s-0.3-0.8,0-1.1c0,0,0,0,0,0
	L16,7.8z"/>
</svg>
